HIERARCHY
ROOT Hips
{
	OFFSET	0.00	0.00	0.00
	CHANNELS 6 Xposition Yposition Zposition Zrotation Xrotation Yrotation
	JOINT LeftUpLeg
	{
		OFFSET	 0.126116	-0.065224	 0.014019
		CHANNELS 3 Zrotation Xrotation Yrotation
		JOINT LeftLeg
		{
			OFFSET	 0.000000	 0.569914	 0.000000
			CHANNELS 3 Zrotation Xrotation Yrotation
			JOINT LeftFoot
			{
				OFFSET	 0.000000	 0.544423	 0.000000
				CHANNELS 3 Zrotation Xrotation Yrotation
				JOINT LeftToeBase
				{
					OFFSET	 0.000000	 0.207117	 0.000000
					CHANNELS 3 Zrotation Xrotation Yrotation
					End Site
					{
						OFFSET	 0.000000	 0.207117	 0.000000
					}
				}
			}
		}
	}
	JOINT RightUpLeg
	{
		OFFSET	-0.124023	-0.065224	 0.008373
		CHANNELS 3 Zrotation Xrotation Yrotation
		JOINT RightLeg
		{
			OFFSET	 0.000000	 0.570047	 0.000000
			CHANNELS 3 Zrotation Xrotation Yrotation
			JOINT RightFoot
			{
				OFFSET	 0.000000	 0.544354	 0.000000
				CHANNELS 3 Zrotation Xrotation Yrotation
				JOINT RightToeBase
				{
					OFFSET	 0.000000	 0.207540	 0.000000
					CHANNELS 3 Zrotation Xrotation Yrotation
					End Site
					{
						OFFSET	 0.000000	 0.207540	 0.000000
					}
				}
			}
		}
	}
	JOINT Spine
	{
		OFFSET	 0.000184	 0.117403	 0.007763
		CHANNELS 3 Zrotation Xrotation Yrotation
		JOINT Spine1
		{
			OFFSET	 0.000000	 0.137269	 0.000000
			CHANNELS 3 Zrotation Xrotation Yrotation
			JOINT Spine2
			{
				OFFSET	 0.000000	 0.156879	 0.000000
				CHANNELS 3 Zrotation Xrotation Yrotation
				JOINT LeftShoulder
				{
					OFFSET	 0.080501	 0.160143	 0.002496
					CHANNELS 3 Zrotation Xrotation Yrotation
					JOINT LeftArm
					{
						OFFSET	 0.000000	 0.164363	 0.000000
						CHANNELS 3 Zrotation Xrotation Yrotation
						JOINT LeftForeArm
						{
							OFFSET	 0.000000	 0.364576	 0.000000
							CHANNELS 3 Zrotation Xrotation Yrotation
							JOINT LeftHand
							{
								OFFSET	 0.000000	 0.360812	 0.000000
								CHANNELS 3 Zrotation Xrotation Yrotation
								JOINT LeftHandIndex1
								{
									OFFSET	 0.000000	 0.086006	 0.000000
									CHANNELS 3 Zrotation Xrotation Yrotation
									JOINT LeftHandIndex2
									{
										OFFSET	 0.000000	 0.047237	 0.000000
										CHANNELS 3 Zrotation Xrotation Yrotation
										JOINT LeftHandIndex3
										{
											OFFSET	-0.004284	 0.038165	 0.000551
											CHANNELS 3 Zrotation Xrotation Yrotation
											End Site
											{
												OFFSET	-0.004284	 0.038165	 0.000551
											}
										}
									}
								}
							}
						}
					}
				}
				JOINT Neck
				{
					OFFSET	 0.000000	 0.176489	 0.000000
					CHANNELS 3 Zrotation Xrotation Yrotation
					JOINT Head
					{
						OFFSET	 0.000000	 0.077941	 0.001747
						CHANNELS 3 Zrotation Xrotation Yrotation
						End Site
						{
							OFFSET	 0.000000	 0.077941	 0.001747
						}
					}
				}
				JOINT RightShoulder
				{
					OFFSET	-0.080363	 0.159706	-0.000306
					CHANNELS 3 Zrotation Xrotation Yrotation
					JOINT RightArm
					{
						OFFSET	 0.000000	 0.164196	 0.000000
						CHANNELS 3 Zrotation Xrotation Yrotation
						JOINT RightForeArm
						{
							OFFSET	 0.000000	 0.365611	 0.000000
							CHANNELS 3 Zrotation Xrotation Yrotation
							JOINT RightHand
							{
								OFFSET	 0.000000	 0.360648	 0.000000
								CHANNELS 3 Zrotation Xrotation Yrotation
								JOINT RightHandIndex1
								{
									OFFSET	 0.000000	 0.069977	 0.000000
									CHANNELS 3 Zrotation Xrotation Yrotation
									JOINT RightHandIndex2
									{
										OFFSET	 0.000000	 0.052305	 0.000000
										CHANNELS 3 Zrotation Xrotation Yrotation
										JOINT RightHandIndex3
										{
											OFFSET	 0.009002	 0.042196	 0.000782
											CHANNELS 3 Zrotation Xrotation Yrotation
											End Site
											{
												OFFSET	 0.009002	 0.042196	 0.000782
											}
										}
									}
								}
							}
						}
					}
				}
			}
		}
	}
}
MOTION
Frames:    6
Frame Time: 0.03333334
 0.476933	 0.968960	 0.628295	-9.344226	-37.879570	-178.358400	 80.331050	 72.673770	 90.224790	 49.780380	-70.816500	 55.486830	-2.889850	 85.510050	-11.003450	 1.292262	 28.425850	-2.713146	-46.170040	 82.510250	-145.756000	-54.457870	-76.709380	-61.372520	-68.715350	 83.955540	 81.692880	-1.288183	 28.361890	 2.710176	 0.965667	 14.481600	 5.273562	 3.027504	 16.966610	-0.687304	-5.696713	 4.010869	-13.660880	-124.447000	 34.160830	 108.876400	 27.788710	-5.863731	 6.123161	 42.066080	-7.180071	-50.656440	 32.464770	 4.679376	 24.648820	-6.580301	 5.266122	 0.000000	 0.000000	 0.000000	 0.000000	 0.000000	 0.000000	 0.000000	 11.832290	 40.990210	-4.999756	-7.626536	-51.801510	-4.334115	 124.223600	 32.290650	-108.128400	-41.700310	-5.687780	 7.705412	-27.808970	 1.093997	 3.566876	-1.210910	-46.244320	-6.854449	 15.208500	 5.323790	 0.000000	 0.000000	 0.000000	 0.000000	 0.000000	 0.000000	 0.000000
 0.475441	 0.972934	 0.629187	-9.587682	-37.504800	-178.514100	 82.505870	 72.647710	 87.849110	 48.159630	-70.374510	 53.589600	-5.538105	 85.114240	-8.184995	 1.292262	 28.425850	-2.713146	-49.607350	 83.092350	-142.797900	-52.487140	-76.379050	-59.138270	-66.963170	 84.110740	 79.952960	-1.288183	 28.361890	 2.710176	 1.020535	 14.391420	 5.368373	 3.063815	 17.112470	-0.656618	-5.760363	 4.040888	-13.870960	-123.926400	 33.884320	 108.538200	 28.384000	-7.219512	 8.078714	 43.281170	-7.344340	-50.442550	 35.534060	 1.862958	 22.957180	-6.580301	 5.266122	 0.000000	 0.000000	 0.000000	 0.000000	 0.000000	 0.000000	 0.000000	 11.622580	 39.788170	-4.920204	-7.425087	-50.667770	-4.281689	 124.280900	 32.157550	-108.078300	-41.894590	-5.714334	 7.745133	-29.419530	 1.152278	 3.786153	-0.497401	-48.508780	-7.091155	 15.208500	 5.323790	 0.000000	 0.000000	 0.000000	 0.000000	 0.000000	 0.000000	 0.000000
 0.474025	 0.979122	 0.629595	-9.641128	-36.976300	-178.550600	 86.038230	 72.550620	 84.385540	 46.029910	-69.739750	 51.149720	-7.426070	 84.702800	-6.101954	 1.292262	 28.425850	-2.713146	-56.313840	 83.859500	-136.431200	-49.511810	-75.816940	-56.043610	-64.485240	 84.093390	 77.477890	-1.288183	 28.361890	 2.710176	 1.049582	 14.307720	 5.471770	 3.164435	 17.424630	-0.665903	-5.760695	 3.833666	-14.041070	-123.946100	 33.480710	 108.360300	 28.603720	-7.897388	 8.491123	 44.334930	-7.507300	-50.500080	 36.590600	 1.328290	 21.147670	-6.580301	 5.266122	 0.000000	 0.000000	 0.000000	 0.000000	 0.000000	 0.000000	 0.000000	 11.077430	 38.221090	-4.695364	-6.936235	-49.102060	-4.137777	 124.424900	 31.815790	-107.946000	-42.033880	-5.785160	 8.212845	-30.485720	 1.241805	 3.595774	-0.436954	-49.977130	-7.005870	 15.208500	 5.323790	 0.000000	 0.000000	 0.000000	 0.000000	 0.000000	 0.000000	 0.000000
 0.450874	 1.107724	 0.622372	-6.619231	-28.780500	-177.315700	 138.803500	 61.962210	 37.294710	 20.504030	-52.822140	 25.839340	 1.810514	 77.488910	-13.029140	 1.292262	 28.425850	-2.713146	-171.516600	 70.975020	-21.657850	-18.390350	-58.648770	-27.709750	-41.701670	 77.901620	 54.227140	-1.288183	 28.361890	 2.710176	 1.241782	 11.364550	 6.428988	 2.795018	 14.585150	 0.999567	-3.812953	 0.188618	-14.486660	-119.511800	 26.322670	 103.084300	 26.642380	 10.102310	 7.448928	 55.025610	-8.503335	-48.375630	 36.973560	 2.112402	 14.689990	-6.580301	 5.266122	 0.000000	 0.000000	 0.000000	 0.000000	 0.000000	 0.000000	 0.000000	 1.175090	 12.196320	-1.163980	-0.489214	-24.737060	-3.740190	 123.497300	 25.714940	-104.376700	-34.896600	 4.050662	-0.004246	-47.056760	 1.358074	 7.663932	-8.395428	-57.654250	-11.175570	 15.208500	 5.323790	 0.000000	 0.000000	 0.000000	 0.000000	 0.000000	 0.000000	 0.000000
 0.448064	 1.128785	 0.617282	-5.761407	-27.228150	-176.853200	 144.299700	 58.708170	 33.323170	 18.012430	-49.333610	 23.972840	 4.718503	 76.217530	-15.521380	 1.292262	 28.425850	-2.713146	-173.393300	 66.776100	-19.420330	-15.957600	-55.041710	-25.686530	-39.269210	 76.588140	 51.437810	-1.288183	 28.361890	 2.710176	 1.308182	 10.557850	 6.542964	 2.770317	 14.163930	 1.347884	-3.351921	-1.111079	-14.436890	-116.060200	 24.100430	 101.045300	 27.361330	 15.529020	 6.652555	 57.136610	-8.558815	-47.312040	 37.048780	 1.907193	 14.119170	-6.580301	 5.266122	 0.000000	 0.000000	 0.000000	 0.000000	 0.000000	 0.000000	 0.000000	 0.637221	 5.328609	-1.036158	-0.287990	-18.608940	-3.762273	 121.212400	 24.193980	-102.904300	-34.547500	 7.446423	-0.648474	-50.414580	 1.529772	 7.205312	-9.628786	-58.714410	-12.029440	 15.208500	 5.323790	 0.000000	 0.000000	 0.000000	 0.000000	 0.000000	 0.000000	 0.000000
 0.447367	 1.140323	 0.612677	-5.089075	-25.587730	-176.350100	 147.527200	 55.999120	 31.352890	 16.853380	-47.500790	 23.171100	 6.988377	 75.697700	-17.451380	 1.292262	 28.425850	-2.713146	-174.113000	 63.524820	-18.307430	-14.832400	-53.099660	-24.787320	-38.596480	 75.831300	 50.342600	-1.288183	 28.361890	 2.710176	 1.295585	 10.207260	 6.458182	 2.973191	 15.403370	 1.403616	-2.989215	-3.164681	-14.398700	-113.069200	 21.868560	 99.303200	 28.896840	 20.000870	 5.566233	 58.364010	-8.566313	-46.337700	 37.875260	 1.472068	 13.632560	-6.580301	 5.266122	 0.000000	 0.000000	 0.000000	 0.000000	 0.000000	 0.000000	 0.000000	 0.067628	-1.144888	-0.974553	-0.055251	-12.837610	-3.800141	 119.100600	 22.573980	-101.553700	-35.325360	 10.340820	-0.732417	-52.416560	 1.671502	 6.791084	-12.871660	-60.044790	-14.137570	 15.208500	 5.323790	 0.000000	 0.000000	 0.000000	 0.000000	 0.000000	 0.000000	 0.000000
